<?xml version="1.0" encoding="utf-8" standalone="no"?>
<!DOCTYPE svg PUBLIC "-//W3C//DTD SVG 1.1//EN"
  "http://www.w3.org/Graphics/SVG/1.1/DTD/svg11.dtd">
<svg height="345.6pt" version="1.1" viewBox="0 0 460.8 345.6" width="460.8pt" xmlns="http://www.w3.org/2000/svg" xmlns:xlink="http://www.w3.org/1999/xlink">
 <metadata>
  <rdf:RDF xmlns:cc="http://creativecommons.org/ns#" xmlns:dc="http://purl.org/dc/elements/1.1/" xmlns:rdf="http://www.w3.org/1999/02/22-rdf-syntax-ns#">
   <cc:Work>
    <dc:type rdf:resource="http://purl.org/dc/dcmitype/StillImage"/>
    <dc:date>2021-07-14T13:07:12.776676</dc:date>
    <dc:format>image/svg+xml</dc:format>
    <dc:creator>
     <cc:Agent>
      <dc:title>Matplotlib v3.4.2, https://matplotlib.org/</dc:title>
     </cc:Agent>
    </dc:creator>
   </cc:Work>
  </rdf:RDF>
 </metadata>
 <defs>
  <style type="text/css">*{stroke-linecap:butt;stroke-linejoin:round;}</style>
 </defs>
 <g id="figure_1">
  <g id="patch_1">
   <path d="M 0 345.6 
L 460.8 345.6 
L 460.8 0 
L 0 0 
z
" style="fill:#ffffff;"/>
  </g>
  <g id="axes_1">
   <g id="patch_2">
    <path d="M 57.6 307.584 
L 414.72 307.584 
L 414.72 41.472 
L 57.6 41.472 
z
" style="fill:#ffffff;"/>
   </g>
   <g id="matplotlib.axis_1">
    <g id="xtick_1">
     <g id="line2d_1">
      <defs>
       <path d="M 0 0 
L 0 3.5 
" id="mdd00be759c" style="stroke:#000000;stroke-width:0.8;"/>
      </defs>
      <g>
       <use style="stroke:#000000;stroke-width:0.8;" x="146.88" xlink:href="#mdd00be759c" y="307.584"/>
      </g>
     </g>
     <g id="text_1">
      <!-- $S_+$ -->
      <g transform="translate(139.23 322.182437)scale(0.1 -0.1)">
       <defs>
        <path d="M 3859 4513 
L 3738 3897 
Q 3422 4066 3111 4152 
Q 2800 4238 2509 4238 
Q 1944 4238 1609 3991 
Q 1275 3744 1275 3334 
Q 1275 3109 1398 2989 
Q 1522 2869 2034 2731 
L 2413 2638 
Q 3053 2472 3303 2217 
Q 3553 1963 3553 1503 
Q 3553 797 2998 353 
Q 2444 -91 1538 -91 
Q 1166 -91 791 -17 
Q 416 56 38 206 
L 166 856 
Q 513 641 861 531 
Q 1209 422 1556 422 
Q 2147 422 2503 684 
Q 2859 947 2859 1369 
Q 2859 1650 2717 1795 
Q 2575 1941 2106 2059 
L 1728 2156 
Q 1081 2325 845 2545 
Q 609 2766 609 3163 
Q 609 3859 1145 4304 
Q 1681 4750 2541 4750 
Q 2875 4750 3203 4690 
Q 3531 4631 3859 4513 
z
" id="DejaVuSans-Oblique-53" transform="scale(0.015625)"/>
        <path d="M 2944 4013 
L 2944 2272 
L 4684 2272 
L 4684 1741 
L 2944 1741 
L 2944 0 
L 2419 0 
L 2419 1741 
L 678 1741 
L 678 2272 
L 2419 2272 
L 2419 4013 
L 2944 4013 
z
" id="DejaVuSans-2b" transform="scale(0.015625)"/>
       </defs>
       <use transform="translate(0 0.78125)" xlink:href="#DejaVuSans-Oblique-53"/>
       <use transform="translate(77.114258 -15.625)scale(0.7)" xlink:href="#DejaVuSans-2b"/>
      </g>
     </g>
    </g>
    <g id="xtick_2">
     <g id="line2d_2">
      <g>
       <use style="stroke:#000000;stroke-width:0.8;" x="325.44" xlink:href="#mdd00be759c" y="307.584"/>
      </g>
     </g>
     <g id="text_2">
      <!-- $S_-$ -->
      <g transform="translate(317.79 322.182437)scale(0.1 -0.1)">
       <defs>
        <path d="M 678 2272 
L 4684 2272 
L 4684 1741 
L 678 1741 
L 678 2272 
z
" id="DejaVuSans-2212" transform="scale(0.015625)"/>
       </defs>
       <use transform="translate(0 0.78125)" xlink:href="#DejaVuSans-Oblique-53"/>
       <use transform="translate(77.114258 -15.625)scale(0.7)" xlink:href="#DejaVuSans-2212"/>
      </g>
     </g>
    </g>
   </g>
   <g id="matplotlib.axis_2"/>
   <g id="line2d_3">
    <path clip-path="url(#pbbf72a91c3)" d="M 133.488 260.0336 
L 160.272 260.0336 
L 160.272 136.586906 
L 133.488 136.586906 
L 133.488 260.0336 
" style="fill:none;stroke:#000000;stroke-linecap:square;"/>
   </g>
   <g id="line2d_4">
    <path clip-path="url(#pbbf72a91c3)" d="M 146.88 260.0336 
L 146.88 280.856983 
" style="fill:none;stroke:#000000;stroke-linecap:square;"/>
   </g>
   <g id="line2d_5">
    <path clip-path="url(#pbbf72a91c3)" d="M 146.88 136.586906 
L 146.88 53.568 
" style="fill:none;stroke:#000000;stroke-linecap:square;"/>
   </g>
   <g id="line2d_6">
    <path clip-path="url(#pbbf72a91c3)" d="M 140.184 280.856983 
L 153.576 280.856983 
" style="fill:none;stroke:#000000;stroke-linecap:square;"/>
   </g>
   <g id="line2d_7">
    <path clip-path="url(#pbbf72a91c3)" d="M 140.184 53.568 
L 153.576 53.568 
" style="fill:none;stroke:#000000;stroke-linecap:square;"/>
   </g>
   <g id="line2d_8">
    <path clip-path="url(#pbbf72a91c3)" d="M 312.048 295.488 
L 338.832 295.488 
L 338.832 282.364587 
L 312.048 282.364587 
L 312.048 295.488 
" style="fill:none;stroke:#000000;stroke-linecap:square;"/>
   </g>
   <g id="line2d_9">
    <path clip-path="url(#pbbf72a91c3)" d="M 325.44 295.488 
L 325.44 295.488 
" style="fill:none;stroke:#000000;stroke-linecap:square;"/>
   </g>
   <g id="line2d_10">
    <path clip-path="url(#pbbf72a91c3)" d="M 325.44 282.364587 
L 325.44 268.716675 
" style="fill:none;stroke:#000000;stroke-linecap:square;"/>
   </g>
   <g id="line2d_11">
    <path clip-path="url(#pbbf72a91c3)" d="M 318.744 295.488 
L 332.136 295.488 
" style="fill:none;stroke:#000000;stroke-linecap:square;"/>
   </g>
   <g id="line2d_12">
    <path clip-path="url(#pbbf72a91c3)" d="M 318.744 268.716675 
L 332.136 268.716675 
" style="fill:none;stroke:#000000;stroke-linecap:square;"/>
   </g>
   <g id="line2d_13">
    <path clip-path="url(#pbbf72a91c3)" d="M 133.488 216.432134 
L 160.272 216.432134 
" style="fill:none;stroke:#ff7f0e;stroke-linecap:square;"/>
   </g>
   <g id="line2d_14">
    <path clip-path="url(#pbbf72a91c3)" d="M 133.488 216.124379 
L 160.272 216.124379 
" style="fill:none;stroke:#ffa500;stroke-linecap:square;"/>
   </g>
   <g id="line2d_15">
    <path clip-path="url(#pbbf72a91c3)" d="M 312.048 295.488 
L 338.832 295.488 
" style="fill:none;stroke:#ff7f0e;stroke-linecap:square;"/>
   </g>
   <g id="line2d_16">
    <path clip-path="url(#pbbf72a91c3)" d="M 312.048 295.488 
L 338.832 295.488 
" style="fill:none;stroke:#ffa500;stroke-linecap:square;"/>
   </g>
   <g id="text_3">
    <!-- 1 $\sigma$ = 2.3e-04 -->
    <g transform="translate(162.9504 139.346281)scale(0.1 -0.1)">
     <defs>
      <path d="M 794 531 
L 1825 531 
L 1825 4091 
L 703 3866 
L 703 4441 
L 1819 4666 
L 2450 4666 
L 2450 531 
L 3481 531 
L 3481 0 
L 794 0 
L 794 531 
z
" id="DejaVuSans-31" transform="scale(0.015625)"/>
      <path id="DejaVuSans-20" transform="scale(0.015625)"/>
      <path d="M 2219 3044 
Q 1744 3044 1422 2700 
Q 1081 2341 969 1747 
Q 844 1119 1044 756 
Q 1241 397 1706 397 
Q 2166 397 2503 759 
Q 2844 1122 2966 1747 
Q 3075 2319 2881 2700 
Q 2700 3044 2219 3044 
z
M 2309 3503 
L 4219 3500 
L 4106 2925 
L 3463 2925 
Q 3706 2438 3575 1747 
Q 3406 888 2884 400 
Q 2359 -91 1609 -91 
Q 856 -91 525 400 
Q 194 888 363 1747 
Q 528 2609 1050 3097 
Q 1484 3503 2309 3503 
z
" id="DejaVuSans-Oblique-3c3" transform="scale(0.015625)"/>
      <path d="M 678 2906 
L 4684 2906 
L 4684 2381 
L 678 2381 
L 678 2906 
z
M 678 1631 
L 4684 1631 
L 4684 1100 
L 678 1100 
L 678 1631 
z
" id="DejaVuSans-3d" transform="scale(0.015625)"/>
      <path d="M 1228 531 
L 3431 531 
L 3431 0 
L 469 0 
L 469 531 
Q 828 903 1448 1529 
Q 2069 2156 2228 2338 
Q 2531 2678 2651 2914 
Q 2772 3150 2772 3378 
Q 2772 3750 2511 3984 
Q 2250 4219 1831 4219 
Q 1534 4219 1204 4116 
Q 875 4013 500 3803 
L 500 4441 
Q 881 4594 1212 4672 
Q 1544 4750 1819 4750 
Q 2544 4750 2975 4387 
Q 3406 4025 3406 3419 
Q 3406 3131 3298 2873 
Q 3191 2616 2906 2266 
Q 2828 2175 2409 1742 
Q 1991 1309 1228 531 
z
" id="DejaVuSans-32" transform="scale(0.015625)"/>
      <path d="M 684 794 
L 1344 794 
L 1344 0 
L 684 0 
L 684 794 
z
" id="DejaVuSans-2e" transform="scale(0.015625)"/>
      <path d="M 2597 2516 
Q 3050 2419 3304 2112 
Q 3559 1806 3559 1356 
Q 3559 666 3084 287 
Q 2609 -91 1734 -91 
Q 1441 -91 1130 -33 
Q 819 25 488 141 
L 488 750 
Q 750 597 1062 519 
Q 1375 441 1716 441 
Q 2309 441 2620 675 
Q 2931 909 2931 1356 
Q 2931 1769 2642 2001 
Q 2353 2234 1838 2234 
L 1294 2234 
L 1294 2753 
L 1863 2753 
Q 2328 2753 2575 2939 
Q 2822 3125 2822 3475 
Q 2822 3834 2567 4026 
Q 2313 4219 1838 4219 
Q 1578 4219 1281 4162 
Q 984 4106 628 3988 
L 628 4550 
Q 988 4650 1302 4700 
Q 1616 4750 1894 4750 
Q 2613 4750 3031 4423 
Q 3450 4097 3450 3541 
Q 3450 3153 3228 2886 
Q 3006 2619 2597 2516 
z
" id="DejaVuSans-33" transform="scale(0.015625)"/>
      <path d="M 3597 1894 
L 3597 1613 
L 953 1613 
Q 991 1019 1311 708 
Q 1631 397 2203 397 
Q 2534 397 2845 478 
Q 3156 559 3463 722 
L 3463 178 
Q 3153 47 2828 -22 
Q 2503 -91 2169 -91 
Q 1331 -91 842 396 
Q 353 884 353 1716 
Q 353 2575 817 3079 
Q 1281 3584 2069 3584 
Q 2775 3584 3186 3129 
Q 3597 2675 3597 1894 
z
M 3022 2063 
Q 3016 2534 2758 2815 
Q 2500 3097 2075 3097 
Q 1594 3097 1305 2825 
Q 1016 2553 972 2059 
L 3022 2063 
z
" id="DejaVuSans-65" transform="scale(0.015625)"/>
      <path d="M 313 2009 
L 1997 2009 
L 1997 1497 
L 313 1497 
L 313 2009 
z
" id="DejaVuSans-2d" transform="scale(0.015625)"/>
      <path d="M 2034 4250 
Q 1547 4250 1301 3770 
Q 1056 3291 1056 2328 
Q 1056 1369 1301 889 
Q 1547 409 2034 409 
Q 2525 409 2770 889 
Q 3016 1369 3016 2328 
Q 3016 3291 2770 3770 
Q 2525 4250 2034 4250 
z
M 2034 4750 
Q 2819 4750 3233 4129 
Q 3647 3509 3647 2328 
Q 3647 1150 3233 529 
Q 2819 -91 2034 -91 
Q 1250 -91 836 529 
Q 422 1150 422 2328 
Q 422 3509 836 4129 
Q 1250 4750 2034 4750 
z
" id="DejaVuSans-30" transform="scale(0.015625)"/>
      <path d="M 2419 4116 
L 825 1625 
L 2419 1625 
L 2419 4116 
z
M 2253 4666 
L 3047 4666 
L 3047 1625 
L 3713 1625 
L 3713 1100 
L 3047 1100 
L 3047 0 
L 2419 0 
L 2419 1100 
L 313 1100 
L 313 1709 
L 2253 4666 
z
" id="DejaVuSans-34" transform="scale(0.015625)"/>
     </defs>
     <use transform="translate(0 0.78125)" xlink:href="#DejaVuSans-31"/>
     <use transform="translate(63.623047 0.78125)" xlink:href="#DejaVuSans-20"/>
     <use transform="translate(95.410156 0.78125)" xlink:href="#DejaVuSans-Oblique-3c3"/>
     <use transform="translate(158.789062 0.78125)" xlink:href="#DejaVuSans-20"/>
     <use transform="translate(190.576172 0.78125)" xlink:href="#DejaVuSans-3d"/>
     <use transform="translate(274.365234 0.78125)" xlink:href="#DejaVuSans-20"/>
     <use transform="translate(306.152344 0.78125)" xlink:href="#DejaVuSans-32"/>
     <use transform="translate(369.775391 0.78125)" xlink:href="#DejaVuSans-2e"/>
     <use transform="translate(401.5625 0.78125)" xlink:href="#DejaVuSans-33"/>
     <use transform="translate(465.185547 0.78125)" xlink:href="#DejaVuSans-65"/>
     <use transform="translate(526.708984 0.78125)" xlink:href="#DejaVuSans-2d"/>
     <use transform="translate(562.792969 0.78125)" xlink:href="#DejaVuSans-30"/>
     <use transform="translate(626.416016 0.78125)" xlink:href="#DejaVuSans-34"/>
    </g>
   </g>
   <g id="text_4">
    <!-- 2 $\sigma$ = 3.5e-04 -->
    <g transform="translate(162.9504 56.327375)scale(0.1 -0.1)">
     <defs>
      <path d="M 691 4666 
L 3169 4666 
L 3169 4134 
L 1269 4134 
L 1269 2991 
Q 1406 3038 1543 3061 
Q 1681 3084 1819 3084 
Q 2600 3084 3056 2656 
Q 3513 2228 3513 1497 
Q 3513 744 3044 326 
Q 2575 -91 1722 -91 
Q 1428 -91 1123 -41 
Q 819 9 494 109 
L 494 744 
Q 775 591 1075 516 
Q 1375 441 1709 441 
Q 2250 441 2565 725 
Q 2881 1009 2881 1497 
Q 2881 1984 2565 2268 
Q 2250 2553 1709 2553 
Q 1456 2553 1204 2497 
Q 953 2441 691 2322 
L 691 4666 
z
" id="DejaVuSans-35" transform="scale(0.015625)"/>
     </defs>
     <use transform="translate(0 0.78125)" xlink:href="#DejaVuSans-32"/>
     <use transform="translate(63.623047 0.78125)" xlink:href="#DejaVuSans-20"/>
     <use transform="translate(95.410156 0.78125)" xlink:href="#DejaVuSans-Oblique-3c3"/>
     <use transform="translate(158.789062 0.78125)" xlink:href="#DejaVuSans-20"/>
     <use transform="translate(190.576172 0.78125)" xlink:href="#DejaVuSans-3d"/>
     <use transform="translate(274.365234 0.78125)" xlink:href="#DejaVuSans-20"/>
     <use transform="translate(306.152344 0.78125)" xlink:href="#DejaVuSans-33"/>
     <use transform="translate(369.775391 0.78125)" xlink:href="#DejaVuSans-2e"/>
     <use transform="translate(401.5625 0.78125)" xlink:href="#DejaVuSans-35"/>
     <use transform="translate(465.185547 0.78125)" xlink:href="#DejaVuSans-65"/>
     <use transform="translate(526.708984 0.78125)" xlink:href="#DejaVuSans-2d"/>
     <use transform="translate(562.792969 0.78125)" xlink:href="#DejaVuSans-30"/>
     <use transform="translate(626.416016 0.78125)" xlink:href="#DejaVuSans-34"/>
    </g>
   </g>
   <g id="text_5">
    <!-- ref = 1.2e-04 -->
    <g transform="translate(162.9504 219.191509)scale(0.1 -0.1)">
     <defs>
      <path d="M 2631 2963 
Q 2534 3019 2420 3045 
Q 2306 3072 2169 3072 
Q 1681 3072 1420 2755 
Q 1159 2438 1159 1844 
L 1159 0 
L 581 0 
L 581 3500 
L 1159 3500 
L 1159 2956 
Q 1341 3275 1631 3429 
Q 1922 3584 2338 3584 
Q 2397 3584 2469 3576 
Q 2541 3569 2628 3553 
L 2631 2963 
z
" id="DejaVuSans-72" transform="scale(0.015625)"/>
      <path d="M 2375 4863 
L 2375 4384 
L 1825 4384 
Q 1516 4384 1395 4259 
Q 1275 4134 1275 3809 
L 1275 3500 
L 2222 3500 
L 2222 3053 
L 1275 3053 
L 1275 0 
L 697 0 
L 697 3053 
L 147 3053 
L 147 3500 
L 697 3500 
L 697 3744 
Q 697 4328 969 4595 
Q 1241 4863 1831 4863 
L 2375 4863 
z
" id="DejaVuSans-66" transform="scale(0.015625)"/>
     </defs>
     <use xlink:href="#DejaVuSans-72"/>
     <use x="38.863281" xlink:href="#DejaVuSans-65"/>
     <use x="100.386719" xlink:href="#DejaVuSans-66"/>
     <use x="135.591797" xlink:href="#DejaVuSans-20"/>
     <use x="167.378906" xlink:href="#DejaVuSans-3d"/>
     <use x="251.167969" xlink:href="#DejaVuSans-20"/>
     <use x="282.955078" xlink:href="#DejaVuSans-31"/>
     <use x="346.578125" xlink:href="#DejaVuSans-2e"/>
     <use x="378.365234" xlink:href="#DejaVuSans-32"/>
     <use x="441.988281" xlink:href="#DejaVuSans-65"/>
     <use x="503.511719" xlink:href="#DejaVuSans-2d"/>
     <use x="539.595703" xlink:href="#DejaVuSans-30"/>
     <use x="603.21875" xlink:href="#DejaVuSans-34"/>
    </g>
   </g>
   <g id="text_6">
    <!-- 1 $\sigma$ = 5.2e-05 -->
    <g transform="translate(162.9504 262.792975)scale(0.1 -0.1)">
     <use transform="translate(0 0.78125)" xlink:href="#DejaVuSans-31"/>
     <use transform="translate(63.623047 0.78125)" xlink:href="#DejaVuSans-20"/>
     <use transform="translate(95.410156 0.78125)" xlink:href="#DejaVuSans-Oblique-3c3"/>
     <use transform="translate(158.789062 0.78125)" xlink:href="#DejaVuSans-20"/>
     <use transform="translate(190.576172 0.78125)" xlink:href="#DejaVuSans-3d"/>
     <use transform="translate(274.365234 0.78125)" xlink:href="#DejaVuSans-20"/>
     <use transform="translate(306.152344 0.78125)" xlink:href="#DejaVuSans-35"/>
     <use transform="translate(369.775391 0.78125)" xlink:href="#DejaVuSans-2e"/>
     <use transform="translate(396.0625 0.78125)" xlink:href="#DejaVuSans-32"/>
     <use transform="translate(459.685547 0.78125)" xlink:href="#DejaVuSans-65"/>
     <use transform="translate(521.208984 0.78125)" xlink:href="#DejaVuSans-2d"/>
     <use transform="translate(557.292969 0.78125)" xlink:href="#DejaVuSans-30"/>
     <use transform="translate(620.916016 0.78125)" xlink:href="#DejaVuSans-35"/>
    </g>
   </g>
   <g id="text_7">
    <!-- 2 $\sigma$ = 2.1e-05 -->
    <g transform="translate(162.9504 283.616358)scale(0.1 -0.1)">
     <use transform="translate(0 0.78125)" xlink:href="#DejaVuSans-32"/>
     <use transform="translate(63.623047 0.78125)" xlink:href="#DejaVuSans-20"/>
     <use transform="translate(95.410156 0.78125)" xlink:href="#DejaVuSans-Oblique-3c3"/>
     <use transform="translate(158.789062 0.78125)" xlink:href="#DejaVuSans-20"/>
     <use transform="translate(190.576172 0.78125)" xlink:href="#DejaVuSans-3d"/>
     <use transform="translate(274.365234 0.78125)" xlink:href="#DejaVuSans-20"/>
     <use transform="translate(306.152344 0.78125)" xlink:href="#DejaVuSans-32"/>
     <use transform="translate(369.775391 0.78125)" xlink:href="#DejaVuSans-2e"/>
     <use transform="translate(401.5625 0.78125)" xlink:href="#DejaVuSans-31"/>
     <use transform="translate(465.185547 0.78125)" xlink:href="#DejaVuSans-65"/>
     <use transform="translate(526.708984 0.78125)" xlink:href="#DejaVuSans-2d"/>
     <use transform="translate(562.792969 0.78125)" xlink:href="#DejaVuSans-30"/>
     <use transform="translate(626.416016 0.78125)" xlink:href="#DejaVuSans-35"/>
    </g>
   </g>
   <g id="text_8">
    <!-- 1 $\sigma$ = 1.9e-05 -->
    <g transform="translate(341.5104 285.123962)scale(0.1 -0.1)">
     <defs>
      <path d="M 703 97 
L 703 672 
Q 941 559 1184 500 
Q 1428 441 1663 441 
Q 2288 441 2617 861 
Q 2947 1281 2994 2138 
Q 2813 1869 2534 1725 
Q 2256 1581 1919 1581 
Q 1219 1581 811 2004 
Q 403 2428 403 3163 
Q 403 3881 828 4315 
Q 1253 4750 1959 4750 
Q 2769 4750 3195 4129 
Q 3622 3509 3622 2328 
Q 3622 1225 3098 567 
Q 2575 -91 1691 -91 
Q 1453 -91 1209 -44 
Q 966 3 703 97 
z
M 1959 2075 
Q 2384 2075 2632 2365 
Q 2881 2656 2881 3163 
Q 2881 3666 2632 3958 
Q 2384 4250 1959 4250 
Q 1534 4250 1286 3958 
Q 1038 3666 1038 3163 
Q 1038 2656 1286 2365 
Q 1534 2075 1959 2075 
z
" id="DejaVuSans-39" transform="scale(0.015625)"/>
     </defs>
     <use transform="translate(0 0.78125)" xlink:href="#DejaVuSans-31"/>
     <use transform="translate(63.623047 0.78125)" xlink:href="#DejaVuSans-20"/>
     <use transform="translate(95.410156 0.78125)" xlink:href="#DejaVuSans-Oblique-3c3"/>
     <use transform="translate(158.789062 0.78125)" xlink:href="#DejaVuSans-20"/>
     <use transform="translate(190.576172 0.78125)" xlink:href="#DejaVuSans-3d"/>
     <use transform="translate(274.365234 0.78125)" xlink:href="#DejaVuSans-20"/>
     <use transform="translate(306.152344 0.78125)" xlink:href="#DejaVuSans-31"/>
     <use transform="translate(369.775391 0.78125)" xlink:href="#DejaVuSans-2e"/>
     <use transform="translate(401.5625 0.78125)" xlink:href="#DejaVuSans-39"/>
     <use transform="translate(465.185547 0.78125)" xlink:href="#DejaVuSans-65"/>
     <use transform="translate(526.708984 0.78125)" xlink:href="#DejaVuSans-2d"/>
     <use transform="translate(562.792969 0.78125)" xlink:href="#DejaVuSans-30"/>
     <use transform="translate(626.416016 0.78125)" xlink:href="#DejaVuSans-35"/>
    </g>
   </g>
   <g id="text_9">
    <!-- 2 $\sigma$ = 3.9e-05 -->
    <g transform="translate(341.5104 271.47605)scale(0.1 -0.1)">
     <use transform="translate(0 0.78125)" xlink:href="#DejaVuSans-32"/>
     <use transform="translate(63.623047 0.78125)" xlink:href="#DejaVuSans-20"/>
     <use transform="translate(95.410156 0.78125)" xlink:href="#DejaVuSans-Oblique-3c3"/>
     <use transform="translate(158.789062 0.78125)" xlink:href="#DejaVuSans-20"/>
     <use transform="translate(190.576172 0.78125)" xlink:href="#DejaVuSans-3d"/>
     <use transform="translate(274.365234 0.78125)" xlink:href="#DejaVuSans-20"/>
     <use transform="translate(306.152344 0.78125)" xlink:href="#DejaVuSans-33"/>
     <use transform="translate(369.775391 0.78125)" xlink:href="#DejaVuSans-2e"/>
     <use transform="translate(401.5625 0.78125)" xlink:href="#DejaVuSans-39"/>
     <use transform="translate(465.185547 0.78125)" xlink:href="#DejaVuSans-65"/>
     <use transform="translate(526.708984 0.78125)" xlink:href="#DejaVuSans-2d"/>
     <use transform="translate(562.792969 0.78125)" xlink:href="#DejaVuSans-30"/>
     <use transform="translate(626.416016 0.78125)" xlink:href="#DejaVuSans-35"/>
    </g>
   </g>
   <g id="text_10">
    <!-- ref = 0.0e+00 -->
    <g transform="translate(341.5104 298.247375)scale(0.1 -0.1)">
     <use xlink:href="#DejaVuSans-72"/>
     <use x="38.863281" xlink:href="#DejaVuSans-65"/>
     <use x="100.386719" xlink:href="#DejaVuSans-66"/>
     <use x="135.591797" xlink:href="#DejaVuSans-20"/>
     <use x="167.378906" xlink:href="#DejaVuSans-3d"/>
     <use x="251.167969" xlink:href="#DejaVuSans-20"/>
     <use x="282.955078" xlink:href="#DejaVuSans-30"/>
     <use x="346.578125" xlink:href="#DejaVuSans-2e"/>
     <use x="378.365234" xlink:href="#DejaVuSans-30"/>
     <use x="441.988281" xlink:href="#DejaVuSans-65"/>
     <use x="503.511719" xlink:href="#DejaVuSans-2b"/>
     <use x="587.300781" xlink:href="#DejaVuSans-30"/>
     <use x="650.923828" xlink:href="#DejaVuSans-30"/>
    </g>
   </g>
   <g id="text_11">
    <!-- 490 GHz Infidelities -->
    <g transform="translate(177.560625 35.472)scale(0.12 -0.12)">
     <defs>
      <path d="M 3809 666 
L 3809 1919 
L 2778 1919 
L 2778 2438 
L 4434 2438 
L 4434 434 
Q 4069 175 3628 42 
Q 3188 -91 2688 -91 
Q 1594 -91 976 548 
Q 359 1188 359 2328 
Q 359 3472 976 4111 
Q 1594 4750 2688 4750 
Q 3144 4750 3555 4637 
Q 3966 4525 4313 4306 
L 4313 3634 
Q 3963 3931 3569 4081 
Q 3175 4231 2741 4231 
Q 1884 4231 1454 3753 
Q 1025 3275 1025 2328 
Q 1025 1384 1454 906 
Q 1884 428 2741 428 
Q 3075 428 3337 486 
Q 3600 544 3809 666 
z
" id="DejaVuSans-47" transform="scale(0.015625)"/>
      <path d="M 628 4666 
L 1259 4666 
L 1259 2753 
L 3553 2753 
L 3553 4666 
L 4184 4666 
L 4184 0 
L 3553 0 
L 3553 2222 
L 1259 2222 
L 1259 0 
L 628 0 
L 628 4666 
z
" id="DejaVuSans-48" transform="scale(0.015625)"/>
      <path d="M 353 3500 
L 3084 3500 
L 3084 2975 
L 922 459 
L 3084 459 
L 3084 0 
L 275 0 
L 275 525 
L 2438 3041 
L 353 3041 
L 353 3500 
z
" id="DejaVuSans-7a" transform="scale(0.015625)"/>
      <path d="M 628 4666 
L 1259 4666 
L 1259 0 
L 628 0 
L 628 4666 
z
" id="DejaVuSans-49" transform="scale(0.015625)"/>
      <path d="M 3513 2113 
L 3513 0 
L 2938 0 
L 2938 2094 
Q 2938 2591 2744 2837 
Q 2550 3084 2163 3084 
Q 1697 3084 1428 2787 
Q 1159 2491 1159 1978 
L 1159 0 
L 581 0 
L 581 3500 
L 1159 3500 
L 1159 2956 
Q 1366 3272 1645 3428 
Q 1925 3584 2291 3584 
Q 2894 3584 3203 3211 
Q 3513 2838 3513 2113 
z
" id="DejaVuSans-6e" transform="scale(0.015625)"/>
      <path d="M 603 3500 
L 1178 3500 
L 1178 0 
L 603 0 
L 603 3500 
z
M 603 4863 
L 1178 4863 
L 1178 4134 
L 603 4134 
L 603 4863 
z
" id="DejaVuSans-69" transform="scale(0.015625)"/>
      <path d="M 2906 2969 
L 2906 4863 
L 3481 4863 
L 3481 0 
L 2906 0 
L 2906 525 
Q 2725 213 2448 61 
Q 2172 -91 1784 -91 
Q 1150 -91 751 415 
Q 353 922 353 1747 
Q 353 2572 751 3078 
Q 1150 3584 1784 3584 
Q 2172 3584 2448 3432 
Q 2725 3281 2906 2969 
z
M 947 1747 
Q 947 1113 1208 752 
Q 1469 391 1925 391 
Q 2381 391 2643 752 
Q 2906 1113 2906 1747 
Q 2906 2381 2643 2742 
Q 2381 3103 1925 3103 
Q 1469 3103 1208 2742 
Q 947 2381 947 1747 
z
" id="DejaVuSans-64" transform="scale(0.015625)"/>
      <path d="M 603 4863 
L 1178 4863 
L 1178 0 
L 603 0 
L 603 4863 
z
" id="DejaVuSans-6c" transform="scale(0.015625)"/>
      <path d="M 1172 4494 
L 1172 3500 
L 2356 3500 
L 2356 3053 
L 1172 3053 
L 1172 1153 
Q 1172 725 1289 603 
Q 1406 481 1766 481 
L 2356 481 
L 2356 0 
L 1766 0 
Q 1100 0 847 248 
Q 594 497 594 1153 
L 594 3053 
L 172 3053 
L 172 3500 
L 594 3500 
L 594 4494 
L 1172 4494 
z
" id="DejaVuSans-74" transform="scale(0.015625)"/>
      <path d="M 2834 3397 
L 2834 2853 
Q 2591 2978 2328 3040 
Q 2066 3103 1784 3103 
Q 1356 3103 1142 2972 
Q 928 2841 928 2578 
Q 928 2378 1081 2264 
Q 1234 2150 1697 2047 
L 1894 2003 
Q 2506 1872 2764 1633 
Q 3022 1394 3022 966 
Q 3022 478 2636 193 
Q 2250 -91 1575 -91 
Q 1294 -91 989 -36 
Q 684 19 347 128 
L 347 722 
Q 666 556 975 473 
Q 1284 391 1588 391 
Q 1994 391 2212 530 
Q 2431 669 2431 922 
Q 2431 1156 2273 1281 
Q 2116 1406 1581 1522 
L 1381 1569 
Q 847 1681 609 1914 
Q 372 2147 372 2553 
Q 372 3047 722 3315 
Q 1072 3584 1716 3584 
Q 2034 3584 2315 3537 
Q 2597 3491 2834 3397 
z
" id="DejaVuSans-73" transform="scale(0.015625)"/>
     </defs>
     <use xlink:href="#DejaVuSans-34"/>
     <use x="63.623047" xlink:href="#DejaVuSans-39"/>
     <use x="127.246094" xlink:href="#DejaVuSans-30"/>
     <use x="190.869141" xlink:href="#DejaVuSans-20"/>
     <use x="222.65625" xlink:href="#DejaVuSans-47"/>
     <use x="300.146484" xlink:href="#DejaVuSans-48"/>
     <use x="375.341797" xlink:href="#DejaVuSans-7a"/>
     <use x="427.832031" xlink:href="#DejaVuSans-20"/>
     <use x="459.619141" xlink:href="#DejaVuSans-49"/>
     <use x="489.111328" xlink:href="#DejaVuSans-6e"/>
     <use x="552.490234" xlink:href="#DejaVuSans-66"/>
     <use x="587.695312" xlink:href="#DejaVuSans-69"/>
     <use x="615.478516" xlink:href="#DejaVuSans-64"/>
     <use x="678.955078" xlink:href="#DejaVuSans-65"/>
     <use x="740.478516" xlink:href="#DejaVuSans-6c"/>
     <use x="768.261719" xlink:href="#DejaVuSans-69"/>
     <use x="796.044922" xlink:href="#DejaVuSans-74"/>
     <use x="835.253906" xlink:href="#DejaVuSans-69"/>
     <use x="863.037109" xlink:href="#DejaVuSans-65"/>
     <use x="924.560547" xlink:href="#DejaVuSans-73"/>
    </g>
   </g>
  </g>
 </g>
 <defs>
  <clipPath id="pbbf72a91c3">
   <rect height="266.112" width="357.12" x="57.6" y="41.472"/>
  </clipPath>
 </defs>
</svg>
