<?xml version="1.0" encoding="utf-8" standalone="no"?>
<!DOCTYPE svg PUBLIC "-//W3C//DTD SVG 1.1//EN"
  "http://www.w3.org/Graphics/SVG/1.1/DTD/svg11.dtd">
<svg height="345.6pt" version="1.1" viewBox="0 0 460.8 345.6" width="460.8pt" xmlns="http://www.w3.org/2000/svg" xmlns:xlink="http://www.w3.org/1999/xlink">
 <metadata>
  <rdf:RDF xmlns:cc="http://creativecommons.org/ns#" xmlns:dc="http://purl.org/dc/elements/1.1/" xmlns:rdf="http://www.w3.org/1999/02/22-rdf-syntax-ns#">
   <cc:Work>
    <dc:type rdf:resource="http://purl.org/dc/dcmitype/StillImage"/>
    <dc:date>2021-07-13T21:25:23.009428</dc:date>
    <dc:format>image/svg+xml</dc:format>
    <dc:creator>
     <cc:Agent>
      <dc:title>Matplotlib v3.4.2, https://matplotlib.org/</dc:title>
     </cc:Agent>
    </dc:creator>
   </cc:Work>
  </rdf:RDF>
 </metadata>
 <defs>
  <style type="text/css">*{stroke-linecap:butt;stroke-linejoin:round;}</style>
 </defs>
 <g id="figure_1">
  <g id="patch_1">
   <path d="M 0 345.6 
L 460.8 345.6 
L 460.8 0 
L 0 0 
z
" style="fill:#ffffff;"/>
  </g>
  <g id="axes_1">
   <g id="line2d_1">
    <path clip-path="url(#pde892701af)" d="M 209.376 273.324177 
L 262.944 273.324177 
L 262.944 141.930988 
L 209.376 141.930988 
L 209.376 273.324177 
" style="fill:none;stroke:#000000;stroke-linecap:square;"/>
   </g>
   <g id="line2d_2">
    <path clip-path="url(#pde892701af)" d="M 236.16 273.324177 
L 236.16 295.488 
" style="fill:none;stroke:#000000;stroke-linecap:square;"/>
   </g>
   <g id="line2d_3">
    <path clip-path="url(#pde892701af)" d="M 236.16 141.930988 
L 236.16 53.568 
" style="fill:none;stroke:#000000;stroke-linecap:square;"/>
   </g>
   <g id="line2d_4">
    <path clip-path="url(#pde892701af)" d="M 222.768 295.488 
L 249.552 295.488 
" style="fill:none;stroke:#000000;stroke-linecap:square;"/>
   </g>
   <g id="line2d_5">
    <path clip-path="url(#pde892701af)" d="M 222.768 53.568 
L 249.552 53.568 
" style="fill:none;stroke:#000000;stroke-linecap:square;"/>
   </g>
   <g id="line2d_6">
    <path clip-path="url(#pde892701af)" d="M 209.376 226.916003 
L 262.944 226.916003 
" style="fill:none;stroke:#ff7f0e;stroke-linecap:square;"/>
   </g>
   <g id="line2d_7">
    <path clip-path="url(#pde892701af)" d="M 209.376 226.588438 
L 262.944 226.588438 
" style="fill:none;stroke:#ffa500;stroke-linecap:square;stroke-width:2.5;"/>
   </g>
   <g id="text_1">
    <!-- reference point = 1.2e-04 -->
    <g transform="translate(268.3008 229.675378)scale(0.1 -0.1)">
     <defs>
      <path d="M 2631 2963 
Q 2534 3019 2420 3045 
Q 2306 3072 2169 3072 
Q 1681 3072 1420 2755 
Q 1159 2438 1159 1844 
L 1159 0 
L 581 0 
L 581 3500 
L 1159 3500 
L 1159 2956 
Q 1341 3275 1631 3429 
Q 1922 3584 2338 3584 
Q 2397 3584 2469 3576 
Q 2541 3569 2628 3553 
L 2631 2963 
z
" id="DejaVuSans-72" transform="scale(0.015625)"/>
      <path d="M 3597 1894 
L 3597 1613 
L 953 1613 
Q 991 1019 1311 708 
Q 1631 397 2203 397 
Q 2534 397 2845 478 
Q 3156 559 3463 722 
L 3463 178 
Q 3153 47 2828 -22 
Q 2503 -91 2169 -91 
Q 1331 -91 842 396 
Q 353 884 353 1716 
Q 353 2575 817 3079 
Q 1281 3584 2069 3584 
Q 2775 3584 3186 3129 
Q 3597 2675 3597 1894 
z
M 3022 2063 
Q 3016 2534 2758 2815 
Q 2500 3097 2075 3097 
Q 1594 3097 1305 2825 
Q 1016 2553 972 2059 
L 3022 2063 
z
" id="DejaVuSans-65" transform="scale(0.015625)"/>
      <path d="M 2375 4863 
L 2375 4384 
L 1825 4384 
Q 1516 4384 1395 4259 
Q 1275 4134 1275 3809 
L 1275 3500 
L 2222 3500 
L 2222 3053 
L 1275 3053 
L 1275 0 
L 697 0 
L 697 3053 
L 147 3053 
L 147 3500 
L 697 3500 
L 697 3744 
Q 697 4328 969 4595 
Q 1241 4863 1831 4863 
L 2375 4863 
z
" id="DejaVuSans-66" transform="scale(0.015625)"/>
      <path d="M 3513 2113 
L 3513 0 
L 2938 0 
L 2938 2094 
Q 2938 2591 2744 2837 
Q 2550 3084 2163 3084 
Q 1697 3084 1428 2787 
Q 1159 2491 1159 1978 
L 1159 0 
L 581 0 
L 581 3500 
L 1159 3500 
L 1159 2956 
Q 1366 3272 1645 3428 
Q 1925 3584 2291 3584 
Q 2894 3584 3203 3211 
Q 3513 2838 3513 2113 
z
" id="DejaVuSans-6e" transform="scale(0.015625)"/>
      <path d="M 3122 3366 
L 3122 2828 
Q 2878 2963 2633 3030 
Q 2388 3097 2138 3097 
Q 1578 3097 1268 2742 
Q 959 2388 959 1747 
Q 959 1106 1268 751 
Q 1578 397 2138 397 
Q 2388 397 2633 464 
Q 2878 531 3122 666 
L 3122 134 
Q 2881 22 2623 -34 
Q 2366 -91 2075 -91 
Q 1284 -91 818 406 
Q 353 903 353 1747 
Q 353 2603 823 3093 
Q 1294 3584 2113 3584 
Q 2378 3584 2631 3529 
Q 2884 3475 3122 3366 
z
" id="DejaVuSans-63" transform="scale(0.015625)"/>
      <path id="DejaVuSans-20" transform="scale(0.015625)"/>
      <path d="M 1159 525 
L 1159 -1331 
L 581 -1331 
L 581 3500 
L 1159 3500 
L 1159 2969 
Q 1341 3281 1617 3432 
Q 1894 3584 2278 3584 
Q 2916 3584 3314 3078 
Q 3713 2572 3713 1747 
Q 3713 922 3314 415 
Q 2916 -91 2278 -91 
Q 1894 -91 1617 61 
Q 1341 213 1159 525 
z
M 3116 1747 
Q 3116 2381 2855 2742 
Q 2594 3103 2138 3103 
Q 1681 3103 1420 2742 
Q 1159 2381 1159 1747 
Q 1159 1113 1420 752 
Q 1681 391 2138 391 
Q 2594 391 2855 752 
Q 3116 1113 3116 1747 
z
" id="DejaVuSans-70" transform="scale(0.015625)"/>
      <path d="M 1959 3097 
Q 1497 3097 1228 2736 
Q 959 2375 959 1747 
Q 959 1119 1226 758 
Q 1494 397 1959 397 
Q 2419 397 2687 759 
Q 2956 1122 2956 1747 
Q 2956 2369 2687 2733 
Q 2419 3097 1959 3097 
z
M 1959 3584 
Q 2709 3584 3137 3096 
Q 3566 2609 3566 1747 
Q 3566 888 3137 398 
Q 2709 -91 1959 -91 
Q 1206 -91 779 398 
Q 353 888 353 1747 
Q 353 2609 779 3096 
Q 1206 3584 1959 3584 
z
" id="DejaVuSans-6f" transform="scale(0.015625)"/>
      <path d="M 603 3500 
L 1178 3500 
L 1178 0 
L 603 0 
L 603 3500 
z
M 603 4863 
L 1178 4863 
L 1178 4134 
L 603 4134 
L 603 4863 
z
" id="DejaVuSans-69" transform="scale(0.015625)"/>
      <path d="M 1172 4494 
L 1172 3500 
L 2356 3500 
L 2356 3053 
L 1172 3053 
L 1172 1153 
Q 1172 725 1289 603 
Q 1406 481 1766 481 
L 2356 481 
L 2356 0 
L 1766 0 
Q 1100 0 847 248 
Q 594 497 594 1153 
L 594 3053 
L 172 3053 
L 172 3500 
L 594 3500 
L 594 4494 
L 1172 4494 
z
" id="DejaVuSans-74" transform="scale(0.015625)"/>
      <path d="M 678 2906 
L 4684 2906 
L 4684 2381 
L 678 2381 
L 678 2906 
z
M 678 1631 
L 4684 1631 
L 4684 1100 
L 678 1100 
L 678 1631 
z
" id="DejaVuSans-3d" transform="scale(0.015625)"/>
      <path d="M 794 531 
L 1825 531 
L 1825 4091 
L 703 3866 
L 703 4441 
L 1819 4666 
L 2450 4666 
L 2450 531 
L 3481 531 
L 3481 0 
L 794 0 
L 794 531 
z
" id="DejaVuSans-31" transform="scale(0.015625)"/>
      <path d="M 684 794 
L 1344 794 
L 1344 0 
L 684 0 
L 684 794 
z
" id="DejaVuSans-2e" transform="scale(0.015625)"/>
      <path d="M 1228 531 
L 3431 531 
L 3431 0 
L 469 0 
L 469 531 
Q 828 903 1448 1529 
Q 2069 2156 2228 2338 
Q 2531 2678 2651 2914 
Q 2772 3150 2772 3378 
Q 2772 3750 2511 3984 
Q 2250 4219 1831 4219 
Q 1534 4219 1204 4116 
Q 875 4013 500 3803 
L 500 4441 
Q 881 4594 1212 4672 
Q 1544 4750 1819 4750 
Q 2544 4750 2975 4387 
Q 3406 4025 3406 3419 
Q 3406 3131 3298 2873 
Q 3191 2616 2906 2266 
Q 2828 2175 2409 1742 
Q 1991 1309 1228 531 
z
" id="DejaVuSans-32" transform="scale(0.015625)"/>
      <path d="M 313 2009 
L 1997 2009 
L 1997 1497 
L 313 1497 
L 313 2009 
z
" id="DejaVuSans-2d" transform="scale(0.015625)"/>
      <path d="M 2034 4250 
Q 1547 4250 1301 3770 
Q 1056 3291 1056 2328 
Q 1056 1369 1301 889 
Q 1547 409 2034 409 
Q 2525 409 2770 889 
Q 3016 1369 3016 2328 
Q 3016 3291 2770 3770 
Q 2525 4250 2034 4250 
z
M 2034 4750 
Q 2819 4750 3233 4129 
Q 3647 3509 3647 2328 
Q 3647 1150 3233 529 
Q 2819 -91 2034 -91 
Q 1250 -91 836 529 
Q 422 1150 422 2328 
Q 422 3509 836 4129 
Q 1250 4750 2034 4750 
z
" id="DejaVuSans-30" transform="scale(0.015625)"/>
      <path d="M 2419 4116 
L 825 1625 
L 2419 1625 
L 2419 4116 
z
M 2253 4666 
L 3047 4666 
L 3047 1625 
L 3713 1625 
L 3713 1100 
L 3047 1100 
L 3047 0 
L 2419 0 
L 2419 1100 
L 313 1100 
L 313 1709 
L 2253 4666 
z
" id="DejaVuSans-34" transform="scale(0.015625)"/>
     </defs>
     <use xlink:href="#DejaVuSans-72"/>
     <use x="38.863281" xlink:href="#DejaVuSans-65"/>
     <use x="100.386719" xlink:href="#DejaVuSans-66"/>
     <use x="135.591797" xlink:href="#DejaVuSans-65"/>
     <use x="197.115234" xlink:href="#DejaVuSans-72"/>
     <use x="235.978516" xlink:href="#DejaVuSans-65"/>
     <use x="297.501953" xlink:href="#DejaVuSans-6e"/>
     <use x="360.880859" xlink:href="#DejaVuSans-63"/>
     <use x="415.861328" xlink:href="#DejaVuSans-65"/>
     <use x="477.384766" xlink:href="#DejaVuSans-20"/>
     <use x="509.171875" xlink:href="#DejaVuSans-70"/>
     <use x="572.648438" xlink:href="#DejaVuSans-6f"/>
     <use x="633.830078" xlink:href="#DejaVuSans-69"/>
     <use x="661.613281" xlink:href="#DejaVuSans-6e"/>
     <use x="724.992188" xlink:href="#DejaVuSans-74"/>
     <use x="764.201172" xlink:href="#DejaVuSans-20"/>
     <use x="795.988281" xlink:href="#DejaVuSans-3d"/>
     <use x="879.777344" xlink:href="#DejaVuSans-20"/>
     <use x="911.564453" xlink:href="#DejaVuSans-31"/>
     <use x="975.1875" xlink:href="#DejaVuSans-2e"/>
     <use x="1006.974609" xlink:href="#DejaVuSans-32"/>
     <use x="1070.597656" xlink:href="#DejaVuSans-65"/>
     <use x="1132.121094" xlink:href="#DejaVuSans-2d"/>
     <use x="1168.205078" xlink:href="#DejaVuSans-30"/>
     <use x="1231.828125" xlink:href="#DejaVuSans-34"/>
    </g>
   </g>
   <g id="text_2">
    <!-- 1 $\sigma$ lower = 5.2e-05 -->
    <g transform="translate(268.3008 276.083552)scale(0.1 -0.1)">
     <defs>
      <path d="M 2219 3044 
Q 1744 3044 1422 2700 
Q 1081 2341 969 1747 
Q 844 1119 1044 756 
Q 1241 397 1706 397 
Q 2166 397 2503 759 
Q 2844 1122 2966 1747 
Q 3075 2319 2881 2700 
Q 2700 3044 2219 3044 
z
M 2309 3503 
L 4219 3500 
L 4106 2925 
L 3463 2925 
Q 3706 2438 3575 1747 
Q 3406 888 2884 400 
Q 2359 -91 1609 -91 
Q 856 -91 525 400 
Q 194 888 363 1747 
Q 528 2609 1050 3097 
Q 1484 3503 2309 3503 
z
" id="DejaVuSans-Oblique-3c3" transform="scale(0.015625)"/>
      <path d="M 603 4863 
L 1178 4863 
L 1178 0 
L 603 0 
L 603 4863 
z
" id="DejaVuSans-6c" transform="scale(0.015625)"/>
      <path d="M 269 3500 
L 844 3500 
L 1563 769 
L 2278 3500 
L 2956 3500 
L 3675 769 
L 4391 3500 
L 4966 3500 
L 4050 0 
L 3372 0 
L 2619 2869 
L 1863 0 
L 1184 0 
L 269 3500 
z
" id="DejaVuSans-77" transform="scale(0.015625)"/>
      <path d="M 691 4666 
L 3169 4666 
L 3169 4134 
L 1269 4134 
L 1269 2991 
Q 1406 3038 1543 3061 
Q 1681 3084 1819 3084 
Q 2600 3084 3056 2656 
Q 3513 2228 3513 1497 
Q 3513 744 3044 326 
Q 2575 -91 1722 -91 
Q 1428 -91 1123 -41 
Q 819 9 494 109 
L 494 744 
Q 775 591 1075 516 
Q 1375 441 1709 441 
Q 2250 441 2565 725 
Q 2881 1009 2881 1497 
Q 2881 1984 2565 2268 
Q 2250 2553 1709 2553 
Q 1456 2553 1204 2497 
Q 953 2441 691 2322 
L 691 4666 
z
" id="DejaVuSans-35" transform="scale(0.015625)"/>
     </defs>
     <use transform="translate(0 0.015625)" xlink:href="#DejaVuSans-31"/>
     <use transform="translate(63.623047 0.015625)" xlink:href="#DejaVuSans-20"/>
     <use transform="translate(95.410156 0.015625)" xlink:href="#DejaVuSans-Oblique-3c3"/>
     <use transform="translate(158.789062 0.015625)" xlink:href="#DejaVuSans-20"/>
     <use transform="translate(190.576172 0.015625)" xlink:href="#DejaVuSans-6c"/>
     <use transform="translate(218.359375 0.015625)" xlink:href="#DejaVuSans-6f"/>
     <use transform="translate(279.541016 0.015625)" xlink:href="#DejaVuSans-77"/>
     <use transform="translate(361.328125 0.015625)" xlink:href="#DejaVuSans-65"/>
     <use transform="translate(422.851562 0.015625)" xlink:href="#DejaVuSans-72"/>
     <use transform="translate(463.964844 0.015625)" xlink:href="#DejaVuSans-20"/>
     <use transform="translate(495.751953 0.015625)" xlink:href="#DejaVuSans-3d"/>
     <use transform="translate(579.541016 0.015625)" xlink:href="#DejaVuSans-20"/>
     <use transform="translate(611.328125 0.015625)" xlink:href="#DejaVuSans-35"/>
     <use transform="translate(674.951172 0.015625)" xlink:href="#DejaVuSans-2e"/>
     <use transform="translate(701.238281 0.015625)" xlink:href="#DejaVuSans-32"/>
     <use transform="translate(764.861328 0.015625)" xlink:href="#DejaVuSans-65"/>
     <use transform="translate(826.384766 0.015625)" xlink:href="#DejaVuSans-2d"/>
     <use transform="translate(862.46875 0.015625)" xlink:href="#DejaVuSans-30"/>
     <use transform="translate(926.091797 0.015625)" xlink:href="#DejaVuSans-35"/>
    </g>
   </g>
   <g id="text_3">
    <!-- 1 $\sigma$ upper = 2.3e-04 -->
    <g transform="translate(268.3008 144.670051)scale(0.1 -0.1)">
     <defs>
      <path d="M 544 1381 
L 544 3500 
L 1119 3500 
L 1119 1403 
Q 1119 906 1312 657 
Q 1506 409 1894 409 
Q 2359 409 2629 706 
Q 2900 1003 2900 1516 
L 2900 3500 
L 3475 3500 
L 3475 0 
L 2900 0 
L 2900 538 
Q 2691 219 2414 64 
Q 2138 -91 1772 -91 
Q 1169 -91 856 284 
Q 544 659 544 1381 
z
M 1991 3584 
L 1991 3584 
z
" id="DejaVuSans-75" transform="scale(0.015625)"/>
      <path d="M 2597 2516 
Q 3050 2419 3304 2112 
Q 3559 1806 3559 1356 
Q 3559 666 3084 287 
Q 2609 -91 1734 -91 
Q 1441 -91 1130 -33 
Q 819 25 488 141 
L 488 750 
Q 750 597 1062 519 
Q 1375 441 1716 441 
Q 2309 441 2620 675 
Q 2931 909 2931 1356 
Q 2931 1769 2642 2001 
Q 2353 2234 1838 2234 
L 1294 2234 
L 1294 2753 
L 1863 2753 
Q 2328 2753 2575 2939 
Q 2822 3125 2822 3475 
Q 2822 3834 2567 4026 
Q 2313 4219 1838 4219 
Q 1578 4219 1281 4162 
Q 984 4106 628 3988 
L 628 4550 
Q 988 4650 1302 4700 
Q 1616 4750 1894 4750 
Q 2613 4750 3031 4423 
Q 3450 4097 3450 3541 
Q 3450 3153 3228 2886 
Q 3006 2619 2597 2516 
z
" id="DejaVuSans-33" transform="scale(0.015625)"/>
     </defs>
     <use transform="translate(0 0.78125)" xlink:href="#DejaVuSans-31"/>
     <use transform="translate(63.623047 0.78125)" xlink:href="#DejaVuSans-20"/>
     <use transform="translate(95.410156 0.78125)" xlink:href="#DejaVuSans-Oblique-3c3"/>
     <use transform="translate(158.789062 0.78125)" xlink:href="#DejaVuSans-20"/>
     <use transform="translate(190.576172 0.78125)" xlink:href="#DejaVuSans-75"/>
     <use transform="translate(253.955078 0.78125)" xlink:href="#DejaVuSans-70"/>
     <use transform="translate(317.431641 0.78125)" xlink:href="#DejaVuSans-70"/>
     <use transform="translate(380.908203 0.78125)" xlink:href="#DejaVuSans-65"/>
     <use transform="translate(442.431641 0.78125)" xlink:href="#DejaVuSans-72"/>
     <use transform="translate(483.544922 0.78125)" xlink:href="#DejaVuSans-20"/>
     <use transform="translate(515.332031 0.78125)" xlink:href="#DejaVuSans-3d"/>
     <use transform="translate(599.121094 0.78125)" xlink:href="#DejaVuSans-20"/>
     <use transform="translate(630.908203 0.78125)" xlink:href="#DejaVuSans-32"/>
     <use transform="translate(694.53125 0.78125)" xlink:href="#DejaVuSans-2e"/>
     <use transform="translate(726.318359 0.78125)" xlink:href="#DejaVuSans-33"/>
     <use transform="translate(789.941406 0.78125)" xlink:href="#DejaVuSans-65"/>
     <use transform="translate(851.464844 0.78125)" xlink:href="#DejaVuSans-2d"/>
     <use transform="translate(887.548828 0.78125)" xlink:href="#DejaVuSans-30"/>
     <use transform="translate(951.171875 0.78125)" xlink:href="#DejaVuSans-34"/>
    </g>
   </g>
   <g id="text_4">
    <!-- 2 $\sigma$ lower = 2.1e-05 -->
    <g transform="translate(268.3008 298.247375)scale(0.1 -0.1)">
     <use transform="translate(0 0.015625)" xlink:href="#DejaVuSans-32"/>
     <use transform="translate(63.623047 0.015625)" xlink:href="#DejaVuSans-20"/>
     <use transform="translate(95.410156 0.015625)" xlink:href="#DejaVuSans-Oblique-3c3"/>
     <use transform="translate(158.789062 0.015625)" xlink:href="#DejaVuSans-20"/>
     <use transform="translate(190.576172 0.015625)" xlink:href="#DejaVuSans-6c"/>
     <use transform="translate(218.359375 0.015625)" xlink:href="#DejaVuSans-6f"/>
     <use transform="translate(279.541016 0.015625)" xlink:href="#DejaVuSans-77"/>
     <use transform="translate(361.328125 0.015625)" xlink:href="#DejaVuSans-65"/>
     <use transform="translate(422.851562 0.015625)" xlink:href="#DejaVuSans-72"/>
     <use transform="translate(463.964844 0.015625)" xlink:href="#DejaVuSans-20"/>
     <use transform="translate(495.751953 0.015625)" xlink:href="#DejaVuSans-3d"/>
     <use transform="translate(579.541016 0.015625)" xlink:href="#DejaVuSans-20"/>
     <use transform="translate(611.328125 0.015625)" xlink:href="#DejaVuSans-32"/>
     <use transform="translate(674.951172 0.015625)" xlink:href="#DejaVuSans-2e"/>
     <use transform="translate(706.738281 0.015625)" xlink:href="#DejaVuSans-31"/>
     <use transform="translate(770.361328 0.015625)" xlink:href="#DejaVuSans-65"/>
     <use transform="translate(831.884766 0.015625)" xlink:href="#DejaVuSans-2d"/>
     <use transform="translate(867.96875 0.015625)" xlink:href="#DejaVuSans-30"/>
     <use transform="translate(931.591797 0.015625)" xlink:href="#DejaVuSans-35"/>
    </g>
   </g>
   <g id="text_5">
    <!-- 2 $\sigma$ upper = 3.5e-04 -->
    <g transform="translate(268.3008 56.307063)scale(0.1 -0.1)">
     <use transform="translate(0 0.78125)" xlink:href="#DejaVuSans-32"/>
     <use transform="translate(63.623047 0.78125)" xlink:href="#DejaVuSans-20"/>
     <use transform="translate(95.410156 0.78125)" xlink:href="#DejaVuSans-Oblique-3c3"/>
     <use transform="translate(158.789062 0.78125)" xlink:href="#DejaVuSans-20"/>
     <use transform="translate(190.576172 0.78125)" xlink:href="#DejaVuSans-75"/>
     <use transform="translate(253.955078 0.78125)" xlink:href="#DejaVuSans-70"/>
     <use transform="translate(317.431641 0.78125)" xlink:href="#DejaVuSans-70"/>
     <use transform="translate(380.908203 0.78125)" xlink:href="#DejaVuSans-65"/>
     <use transform="translate(442.431641 0.78125)" xlink:href="#DejaVuSans-72"/>
     <use transform="translate(483.544922 0.78125)" xlink:href="#DejaVuSans-20"/>
     <use transform="translate(515.332031 0.78125)" xlink:href="#DejaVuSans-3d"/>
     <use transform="translate(599.121094 0.78125)" xlink:href="#DejaVuSans-20"/>
     <use transform="translate(630.908203 0.78125)" xlink:href="#DejaVuSans-33"/>
     <use transform="translate(694.53125 0.78125)" xlink:href="#DejaVuSans-2e"/>
     <use transform="translate(726.318359 0.78125)" xlink:href="#DejaVuSans-35"/>
     <use transform="translate(789.941406 0.78125)" xlink:href="#DejaVuSans-65"/>
     <use transform="translate(851.464844 0.78125)" xlink:href="#DejaVuSans-2d"/>
     <use transform="translate(887.548828 0.78125)" xlink:href="#DejaVuSans-30"/>
     <use transform="translate(951.171875 0.78125)" xlink:href="#DejaVuSans-34"/>
    </g>
   </g>
  </g>
 </g>
 <defs>
  <clipPath id="pde892701af">
   <rect height="266.112" width="357.12" x="57.6" y="41.472"/>
  </clipPath>
 </defs>
</svg>
